<?xml version="1.0" encoding="UTF-8" standalone="no"?>
<!-- Created with Inkscape (http://www.inkscape.org/) -->

<svg
   xmlns:dc="http://purl.org/dc/elements/1.1/"
   xmlns:cc="http://creativecommons.org/ns#"
   xmlns:rdf="http://www.w3.org/1999/02/22-rdf-syntax-ns#"
   xmlns:svg="http://www.w3.org/2000/svg"
   xmlns="http://www.w3.org/2000/svg"
   xmlns:sodipodi="http://sodipodi.sourceforge.net/DTD/sodipodi-0.dtd"
   xmlns:inkscape="http://www.inkscape.org/namespaces/inkscape"
   width="56.531551mm"
   height="30.928047mm"
   viewBox="0 0 56.531551 30.928047"
   version="1.1"
   id="svg942"
   sodipodi:docname="logo 2tone.svg"
   inkscape:version="0.92.5 (2060ec1f9f, 2020-04-08)"
   inkscape:export-filename="C:\Users\akuma\Desktop\Logos\19.png"
   inkscape:export-xdpi="96"
   inkscape:export-ydpi="96">
  <defs
     id="defs936" />
  <sodipodi:namedview
     id="base"
     pagecolor="#ffffff"
     bordercolor="#666666"
     borderopacity="1.0"
     inkscape:pageopacity="0.0"
     inkscape:pageshadow="2"
     inkscape:zoom="5.6"
     inkscape:cx="115.1377"
     inkscape:cy="25.159804"
     inkscape:document-units="mm"
     inkscape:current-layer="layer1"
     showgrid="false"
     inkscape:window-width="3840"
     inkscape:window-height="2120"
     inkscape:window-x="3348"
     inkscape:window-y="-12"
     inkscape:window-maximized="1" />
  <metadata
     id="metadata939">
    <rdf:RDF>
      <cc:Work
         rdf:about="">
        <dc:format>image/svg+xml</dc:format>
        <dc:type
           rdf:resource="http://purl.org/dc/dcmitype/StillImage" />
        <dc:title></dc:title>
      </cc:Work>
    </rdf:RDF>
  </metadata>
  <g
     inkscape:label="Layer 1"
     inkscape:groupmode="layer"
     id="layer1"
     transform="translate(-100.98949,-89.139562)">
    <path
       style="font-style:normal;font-weight:bold;font-size:42.33333206px;line-height:1.25;font-family:sans-serif;letter-spacing:0px;word-spacing:0px;display:inline;fill:#030303;fill-opacity:1;stroke:none;stroke-width:0.23787013"
       mask="none"
       d="m 131.13602,105.93776 c -0.7395,-1.14083 -1.73537,-1.93615 -2.98761,-2.38594 1.08041,-0.50988 1.90464,-1.28846 2.47269,-2.33578 0.21047,-0.39313 0.38194,-0.81654 0.51442,-1.270207"
       id="path5355"
       inkscape:connector-curvature="0" />
    <path
       style="font-style:normal;font-weight:bold;font-size:42.33333206px;line-height:1.25;font-family:sans-serif;letter-spacing:0px;word-spacing:0px;display:inline;fill:#030303;fill-opacity:1;stroke:none;stroke-width:0.254859"
       d="m 131.14062,116.91151 c -0.47623,0.72953 -1.09981,1.35578 -1.87379,1.87716 -1.05301,0.70935 -2.39568,1.23123 -4.02249,1.56933 v 1.26198 h 5.89628 v -4.70847"
       id="path5361"
       inkscape:connector-curvature="0"
       sodipodi:nodetypes="cccccc" />
    <path
       inkscape:label="{B"
       inkscape:connector-curvature="0"
       id="path5194"
       d="m 112.92416,89.206225 c -2.37925,0 -4.11501,0.480316 -5.2064,1.440739 -1.09139,0.949509 -1.63711,2.477316 -1.63711,4.583699 v 3.356384 c 0,1.637083 -0.2943,2.771953 -0.88366,3.404963 -0.58935,0.63301 -1.65932,0.94929 -3.20911,0.94929 h -0.99839 v 3.65094 h 0.99839 c 1.54979,0 2.61976,0.32193 3.20911,0.96584 0.58936,0.63301 0.88366,1.76788 0.88366,3.40496 v 3.14347 c 0,2.10638 0.54572,3.63981 1.63711,4.60024 1.09139,0.96042 3.1925,1.36064 5.57175,1.36064 h 3.55224 v -5.41569 l -1.56166,0.0413 c -1.53886,0 -2.54291,-0.24016 -3.01222,-0.72037 -0.45838,-0.46929 -0.68781,-1.48408 -0.68781,-3.04477 0,0 0.14951,-1.82424 0,-2.71767 -0.1132,-0.67647 -0.24419,-1.40772 -0.66973,-1.94562 -0.62088,-0.78481 -1.32586,-1.30936 -2.53731,-1.60403 1.20053,-0.27285 2.04618,-0.79659 2.53731,-1.57148 0.49113,-0.77489 0.70019,-2.01949 0.73639,-3.732591 l 0.0315,-1.486731 c 0.0327,-1.549428 0.56327,-2.058197 1.02165,-2.527494 0.46931,-0.480211 1.47335,-0.720369 3.01222,-0.720369 h 1.12964 2.39986 c 1.25402,0 2.20486,0.282497 2.85253,0.847493 0.64768,0.551215 0.97152,1.357369 0.97152,2.418457 0,1.07487 -0.32384,1.887908 -0.97152,2.439125 -0.64767,0.55121 -1.59851,0.82683 -2.85253,0.82683 l -6.5257,0.0672 v 5.41569 l 6.79441,-0.0672 c 1.61223,-0.0159 2.81809,0.33761 3.61735,1.01285 0.79926,0.66146 1.1989,1.66055 1.1989,2.99724 0,1.36426 -0.40653,2.384 -1.21957,3.05924 -0.79926,0.67523 -1.99815,1.01286 -3.59668,1.01286 h -1.61023 v 5.41569 h 2.18901 c 4.10655,0 7.1658,-0.73036 9.17773,-2.19108 2.01193,-1.46071 3.01791,-3.67937 3.01791,-6.65593 0,-1.94303 -0.46854,-3.58289 -1.4056,-4.91959 -0.93706,-1.33669 -2.25998,-2.2531 -3.96875,-2.74919 1.3367,-0.50988 2.35644,-1.28845 3.05924,-2.33577 0.7028,-1.06108 1.0542,-2.342668 1.0542,-3.844729 0,-2.852539 -0.96463,-4.926485 -2.89388,-6.221843 -1.91547,-1.295355 -5.01606,-1.943033 -9.30176,-1.943033 h -1.98644 z"
       style="font-style:normal;font-weight:bold;font-size:42.33333206px;line-height:1.25;font-family:sans-serif;letter-spacing:0px;word-spacing:0px;display:inline;fill:#7f0000;fill-opacity:1;stroke:none;stroke-width:0.20954677" />
    <path
       inkscape:label="-"
       inkscape:connector-curvature="0"
       id="path5198"
       style="font-style:normal;font-weight:bold;font-size:42.33333206px;line-height:1.25;font-family:sans-serif;letter-spacing:0px;word-spacing:0px;display:inline;fill:#030303;fill-opacity:1;stroke:none;stroke-width:0.26458332"
       d="M 148.43533,100.92621 H 136.2521 v 6.01514 h 12.18323 z"
       sodipodi:nodetypes="ccccc"
       inkscape:export-xdpi="96"
       inkscape:export-ydpi="96" />
    <path
       inkscape:label="}"
       style="font-style:normal;font-weight:bold;font-size:42.33333206px;line-height:1.25;font-family:sans-serif;letter-spacing:0px;word-spacing:0px;display:inline;fill:#030303;fill-opacity:1;stroke:none;stroke-width:0.20954677"
       d="m 125.11257,89.211909 c 1.44989,0.323109 2.63428,0.791253 3.54655,1.408183 1.38803,0.931967 2.27401,2.269491 2.6634,4.007507 h 9.26714 c 1.53887,0 2.54291,0.240158 3.01222,0.72037 0.45838,0.469297 0.98891,0.978066 1.02164,2.527494 l 0.0315,1.486214 c 0.0362,1.713103 -0.10502,3.191563 0.38611,3.966453 0.49113,0.77489 1.68758,1.06477 2.88811,1.33762 -1.21145,0.29467 -2.31803,0.40633 -2.93891,1.19114 -0.31924,0.52609 -0.26175,0.96204 -0.26865,2.35903 0.0159,1.05879 0,1.71366 0,1.71366 0.006,1.27053 -1.22856,1.99537 -3.217,2.02932 -2.88786,0.0493 -4.69052,0.0526 -4.69052,0.0526 v 8.06152 h 6.19858 c 2.37926,0 4.47985,-0.40073 5.57124,-1.36115 1.09139,-0.96043 1.63711,-2.49386 1.63711,-4.60024 v -3.14296 c 0,-1.63708 0.29482,-2.77195 0.88418,-3.40496 0.58935,-0.64391 1.6588,-0.96583 3.20859,-0.96583 h 0.99839 v -3.65094 h -0.99839 c -1.54979,0 -2.61924,-0.31629 -3.20859,-0.9493 -0.58936,-0.63301 -0.88418,-1.76839 -0.88418,-3.405475 v -3.355868 c 0,-2.106383 -0.54572,-3.63419 -1.63711,-4.583699 -1.09139,-0.960423 -2.82663,-1.440739 -5.20588,-1.440739 z"
       id="path5216"
       inkscape:connector-curvature="0"
       sodipodi:nodetypes="cccscccsccccsccscsscsccscsscsc" />
  </g>
</svg>
